<svg width="648" height="931" viewBox="0 0 648 931" fill="none" xmlns="http://www.w3.org/2000/svg">
<path d="M566.335 193.337L576.696 218.393L484.472 277.005L400.135 265.697L363.599 301.831L410.288 323.292L485.317 284.004L592.435 307.625L591.267 334.716L629.216 362.825L583.939 376.26L575.772 402.115L467.381 387.723L410.019 324.823L358.804 329.02L380.776 375.471L463.583 393.617L530.469 480.584L512.161 500.585L523.163 546.509L479.844 527.699L456.971 542.255L383.091 461.452L379.585 376.471L337.656 346.765L324.629 396.471L376.487 463.72L371.825 573.247L344.944 576.8L323.852 619.055L302.759 576.8L275.879 573.247L271.219 463.717L323.075 396.471L310.049 346.765L268.119 376.468L264.612 461.455L190.735 542.255L167.857 527.699L124.54 546.512L135.544 500.585L117.236 480.584L184.12 393.619L266.927 375.471L288.9 329.02L237.687 324.823L180.325 387.721L71.9334 402.115L63.764 376.26L18.488 362.825L56.4387 334.716L55.2707 307.625L162.385 284.004L237.417 323.292L284.107 301.831L247.571 265.697L163.232 277.005L71.004 218.393L81.3667 193.337L55.3174 153.943L102.46 156.805L118.979 135.301L216.117 186.007L248.348 264.349L297.911 277.923L293.149 226.759L221.375 181.275L188.388 77.0599L212.433 64.5253L217.801 17.6066L252.072 50.0999L278.548 44.2439L320.312 145.389L294.611 226.227L323.852 268.481L353.093 226.227L327.392 145.389L369.155 44.2439L395.632 50.0999L429.904 17.6066L435.273 64.5253L459.315 77.0599L426.328 181.279L354.555 226.759L349.793 277.923L399.353 264.349L431.589 186.004L528.728 135.301L545.244 156.805L592.387 153.943L566.335 193.337ZM575.571 194.227L608.265 144.772L549.089 148.364L531.031 124.856L437.293 173.788L469.203 72.9732L442.916 59.2706L436.176 0.370593L393.153 41.1586L364.208 34.7586L323.852 132.499L283.495 34.7586L254.552 41.1586L211.525 0.370593L204.788 59.2706L178.503 72.9732L210.411 173.788L116.671 124.856L98.6134 148.364L39.436 144.772L72.1347 194.227L60.8067 221.619L150.049 278.335L46.7894 301.107L48.0667 330.723L0.424011 366.009L57.2627 382.875L66.192 411.141L171.015 397.223L106.548 481.041L126.564 502.908L112.748 560.563L167.131 536.948L192.14 552.861L263.492 474.82L267.987 580.467L297.373 584.352L323.852 637.397L350.329 584.352L379.717 580.467L384.213 474.82L455.561 552.861L480.573 536.948L534.959 560.564L521.14 502.908L541.156 481.041L476.692 397.223L581.513 411.141L590.441 382.875L647.277 366.009L599.639 330.723L600.915 301.107L497.655 278.335L586.899 221.619L575.571 194.227Z" fill="white"/>
<path d="M37.8977 807.543V802.206C54.4257 801.174 54.9417 800.656 54.9417 791.876V768.119C54.9417 764.848 54.2537 762.092 52.3591 758.65C44.2671 742.983 33.9377 724.735 24.6417 708.551C20.6817 701.838 18.7884 700.803 10.1804 700.459V695.123H53.3924V700.459L43.7511 701.32C41.1697 701.492 40.4804 703.387 42.0297 706.14C49.2604 720.947 59.0737 737.818 68.1977 754.518H68.5417C78.0111 736.442 87.6524 716.642 91.7844 706.486C93.1617 703.214 92.8164 701.492 89.8897 701.148L80.9377 700.459V695.123H116.403V700.459C105.73 700.976 104.524 702.182 99.187 710.96C94.0217 719.398 82.4871 741.262 74.2244 757.79C72.6751 760.888 72.1577 763.47 72.1577 767.43V791.876C72.1577 800.656 72.6751 801.174 89.2017 802.206V807.543H37.8977Z" fill="white"/>
<path d="M157.376 711.134H156.858C152.038 725.078 146.185 742.122 141.193 758.133H173.214C169.598 746.426 161.162 721.807 157.376 711.134ZM174.248 807.543V802.206L181.822 801.517C186.816 801.001 187.676 799.106 185.954 794.631C183.2 786.713 177.346 769.839 175.28 764.33H138.954C135.34 775.866 131.896 785.162 129.313 794.975C127.936 799.106 128.453 800.829 133.273 801.345L141.709 802.206V807.543H105.9V802.206C116.057 801.69 117.606 799.795 121.049 791.015C132.757 760.543 144.464 725.939 155.482 694.434H168.566C177.69 721.29 194.39 768.635 202.998 792.565C205.925 800.829 207.646 801.345 216.944 802.206V807.543H174.248Z" fill="white"/>
<path d="M289.076 723.357C286.321 706.829 278.573 698.393 264.801 698.393C251.373 698.393 244.141 707.346 244.141 719.053C244.141 731.965 257.225 738.162 267.555 742.122C287.009 749.525 301.299 755.894 301.299 777.07C301.299 794.286 290.108 810.298 261.013 810.298C249.652 810.298 236.221 807.371 228.992 800.657L227.271 774.317H232.779C237.084 792.737 246.896 804.273 261.875 804.273C276.163 804.273 284.943 796.525 284.943 782.579C284.943 769.151 271.343 762.093 259.636 757.789C242.937 751.763 228.992 744.705 228.992 724.562C228.992 702.526 246.036 692.195 266.177 692.195C277.196 692.195 288.559 695.294 294.757 699.082V723.357H289.076Z" fill="white"/>
<path d="M330.393 710.789C330.393 701.837 330.048 701.492 315.932 700.632V695.122H398.396V722.152H392.886C390.477 705.28 386.689 701.149 368.268 701.149H353.462C348.297 701.149 347.608 701.837 347.608 707.001V745.737H368.784C382.385 745.737 383.074 741.09 384.622 731.104H390.133V767.429H384.622C383.246 757.1 382.385 752.28 368.784 752.28H347.608V787.745C347.608 798.592 349.33 801.345 368.096 801.345C388.41 801.345 395.641 797.385 399.428 777.76H405.11L401.666 807.542H315.932V802.206C330.048 801.173 330.393 800.828 330.393 791.876V710.789Z" fill="white"/>
<path d="M432.654 710.789C432.654 701.837 432.308 701.492 418.191 700.632V695.122H500.656V722.152H495.147C492.738 705.28 488.95 701.149 470.528 701.149H455.723C450.558 701.149 449.868 701.837 449.868 707.001V745.737H471.044C484.646 745.737 485.335 741.09 486.883 731.104H492.394V767.429H486.883C485.507 757.1 484.646 752.28 471.044 752.28H449.868V787.745C449.868 798.592 451.591 801.345 470.356 801.345C490.671 801.345 497.902 797.385 501.688 777.76H507.371L503.927 807.542H418.191V802.206C432.308 801.173 432.654 800.828 432.654 791.876V710.789Z" fill="white"/>
<path d="M610.836 807.543C588.111 775.006 565.903 742.639 542.833 710.272H542.488V773.456C542.488 782.407 542.833 788.606 543.523 793.943C544.555 801.002 549.547 801.346 560.049 802.206V807.543H519.763V802.206C528.199 801.516 532.848 800.828 533.88 793.943C534.569 788.606 534.915 782.407 534.915 773.456V710.96C534.915 701.838 534.569 701.492 520.452 700.631V695.123H552.303C570.551 721.119 593.62 754.518 614.796 783.958L614.968 784.3V729.21C614.968 720.258 614.624 714.06 613.935 708.723C612.903 701.664 607.737 701.32 597.236 700.631V695.123H637.521V700.631C629.085 701.32 624.781 701.664 623.748 708.723C623.06 714.232 622.715 720.258 622.715 729.21V807.543H610.836Z" fill="white"/>
<path d="M63.3028 835.242V857.657H60.2908C58.9734 844.038 56.9974 840.207 46.7388 840.207H38.6441C35.7268 840.207 35.3508 840.633 35.3508 845.03V878.937H47.1148C54.5494 878.937 54.9254 875.531 55.7734 866.735H58.7854V897.379H55.7734C54.9254 888.725 54.5494 884.326 47.1148 884.326H35.3508V914.97C35.3508 922.347 35.6321 922.631 44.6668 923.482V927.881H18.1268V923.482C25.8441 922.631 26.0321 922.347 26.0321 914.97V848.151C26.0321 840.774 25.8441 840.491 18.1268 839.781V835.242H63.3028Z" fill="white"/>
<path d="M82.7812 881.631C82.7812 901.21 86.2639 925.185 101.888 925.185C117.511 925.185 121.087 901.21 121.087 881.631C121.087 862.054 117.605 837.937 101.888 837.937C86.2639 837.937 82.7812 862.054 82.7812 881.631ZM131.723 881.631C131.723 910.573 122.028 930.15 101.981 930.15C81.8399 930.15 72.2399 910.573 72.2399 881.631C72.2399 852.549 81.7465 832.829 102.076 832.829C122.028 832.829 131.723 852.549 131.723 881.631Z" fill="white"/>
<path d="M203.717 835.242V839.639C196.093 840.491 195.811 840.774 195.811 848.293V894.258C195.811 902.343 194.871 909.295 193.364 913.978C189.223 927.029 179.812 930.15 170.871 930.15C162.024 930.15 152.895 926.886 148.753 914.119C147.247 909.437 146.307 902.486 146.307 894.542V848.151C146.307 840.774 146.119 840.491 138.4 839.781V835.242H163.624V839.781C156 840.491 155.717 840.774 155.717 848.151V891.846C155.717 907.878 158.165 925.185 170.965 925.185C184.329 925.185 186.776 908.87 186.776 891.846V848.151C186.776 840.774 186.588 840.491 178.871 839.781V835.242H203.717Z" fill="white"/>
<path d="M258.395 927.88C245.973 901.068 233.831 874.398 221.219 847.726H221.031V899.791C221.031 907.168 221.219 912.275 221.595 916.674C222.161 922.49 224.89 922.774 230.631 923.482V927.88H208.607V923.482C213.219 922.915 215.761 922.348 216.325 916.674C216.702 912.275 216.89 907.168 216.89 899.791V848.294C216.89 840.775 216.702 840.491 208.985 839.782V835.242H226.395C236.371 856.664 248.983 884.186 260.561 908.444L260.654 908.728V863.331C260.654 855.955 260.466 850.847 260.09 846.45C259.525 840.632 256.701 840.35 250.959 839.782V835.242H272.983V839.782C268.371 840.35 266.018 840.632 265.454 846.45C265.078 850.988 264.89 855.955 264.89 863.331V927.88H258.395Z" fill="white"/>
<path d="M296.979 911.141C296.979 921.354 298.203 922.915 305.826 922.915C320.697 922.915 331.143 914.119 331.143 880.214C331.143 857.798 325.497 840.207 306.862 840.207C297.545 840.207 296.979 840.917 296.979 847.585V911.141ZM309.402 835.242C320.131 835.242 328.321 838.079 334.062 846.307C339.426 854.11 341.685 866.169 341.685 879.787C341.685 913.126 327.755 927.881 307.521 927.881H279.662V923.482C287.379 922.631 287.567 922.347 287.567 914.97V848.151C287.567 840.633 287.379 840.349 279.662 839.639V835.242H309.402Z" fill="white"/>
<path d="M374.905 848.435H374.622C371.988 859.926 368.788 873.971 366.058 887.164H383.564C381.588 877.518 376.976 857.231 374.905 848.435ZM384.129 927.88V923.482L388.269 922.915C390.998 922.49 391.47 920.928 390.529 917.24C389.022 910.715 385.822 896.811 384.693 892.272H364.834C362.858 901.778 360.976 909.438 359.564 917.523C358.812 920.928 359.094 922.348 361.729 922.774L366.341 923.482V927.88H346.765V923.482C352.318 923.058 353.164 921.496 355.046 914.26C361.446 889.151 367.846 860.635 373.87 834.675H381.022C386.01 856.804 395.141 895.819 399.846 915.538C401.445 922.348 402.386 922.774 407.469 923.482V927.88H384.129Z" fill="white"/>
<path d="M435.044 914.97C435.044 920.929 435.327 922.49 440.408 923.057L444.832 923.482V927.881H416.032V923.482L420.55 923.057C425.538 922.631 425.727 920.786 425.727 914.97V840.207H420.644C410.479 840.207 408.88 843.47 407.656 858.934H404.551V835.242H456.22V858.934H453.208C451.984 843.47 450.479 840.207 440.22 840.207H435.044V914.97Z" fill="white"/>
<path d="M480.029 914.97C480.029 922.347 480.311 922.631 487.934 923.482V927.881H462.805V923.482C470.522 922.631 470.711 922.347 470.711 914.97V848.151C470.711 840.775 470.522 840.491 462.805 839.781V835.242H487.934V839.781C480.311 840.491 480.029 840.775 480.029 848.151V914.97Z" fill="white"/>
<path d="M507.603 881.631C507.603 901.21 511.084 925.185 526.708 925.185C542.332 925.185 545.908 901.21 545.908 881.631C545.908 862.054 542.425 837.937 526.708 837.937C511.084 837.937 507.603 862.054 507.603 881.631ZM556.543 881.631C556.543 910.573 546.849 930.15 526.801 930.15C506.661 930.15 497.061 910.573 497.061 881.631C497.061 852.549 506.568 832.829 526.896 832.829C546.849 832.829 556.543 852.549 556.543 881.631Z" fill="white"/>
<path d="M614.986 927.88C602.563 901.068 590.422 874.398 577.81 847.726H577.622V899.791C577.622 907.168 577.81 912.275 578.186 916.674C578.751 922.49 581.48 922.774 587.222 923.482V927.88H565.198V923.482C569.81 922.915 572.351 922.348 572.915 916.674C573.291 912.275 573.48 907.168 573.48 899.791V848.294C573.48 840.775 573.291 840.491 565.574 839.782V835.242H582.986C592.962 856.664 605.574 884.186 617.15 908.444L617.244 908.728V863.331C617.244 855.955 617.056 850.847 616.68 846.45C616.115 840.632 613.291 840.35 607.551 839.782V835.242H629.574V839.782C624.962 840.35 622.61 840.632 622.044 846.45C621.668 850.988 621.479 855.955 621.479 863.331V927.88H614.986Z" fill="white"/>
</svg>
