<svg width="628" height="238" viewBox="0 0 628 238" fill="none" xmlns="http://www.w3.org/2000/svg">
<path d="M27.7173 115.347V110.01C44.2453 108.978 44.7613 108.461 44.7613 99.6808V75.9235C44.7613 72.6528 44.0733 69.8968 42.1787 66.4541C34.0867 50.7875 23.7573 32.5395 14.4613 16.3555C10.5013 9.64214 8.608 8.60747 0 8.26347V2.92748H43.212V8.26347L33.5707 9.12481C30.9893 9.29681 30.3 11.1915 31.8493 13.9448C39.08 28.7515 48.8933 45.6221 58.0173 62.3221H58.3613C67.8307 44.2461 77.472 24.4461 81.604 14.2901C82.9813 11.0181 82.636 9.29682 79.7093 8.95282L70.7573 8.26347V2.92748H106.223V8.26347C95.5493 8.78081 94.344 9.98615 89.0067 18.7648C83.8413 27.2021 72.3067 49.0661 64.044 65.5941C62.4947 68.6928 61.9773 71.2741 61.9773 75.2341V99.6808C61.9773 108.461 62.4947 108.978 79.0213 110.01V115.347H27.7173Z" fill="white"/>
<path d="M147.195 18.9387H146.678C141.858 32.8827 136.005 49.9267 131.013 65.9374H163.034C159.418 54.2307 150.982 29.612 147.195 18.9387ZM164.067 115.348V110.011L171.642 109.321C176.635 108.805 177.495 106.911 175.774 102.436C173.019 94.5174 167.166 77.644 165.099 72.1347H128.774C125.159 83.6707 121.715 92.9667 119.133 102.78C117.755 106.911 118.273 108.633 123.093 109.149L131.529 110.011V115.348H95.7192V110.011C105.877 109.495 107.426 107.6 110.869 98.82C122.577 68.348 134.283 33.744 145.302 2.23869H158.386C167.51 29.0947 184.21 76.44 192.818 100.369C195.745 108.633 197.466 109.149 206.763 110.011V115.348H164.067Z" fill="white"/>
<path d="M278.896 31.1613C276.141 14.6333 268.393 6.19733 254.621 6.19733C241.193 6.19733 233.961 15.1507 233.961 26.8573C233.961 39.7693 247.045 45.9667 257.374 49.9267C276.829 57.3293 291.118 63.6987 291.118 84.8747C291.118 102.091 279.928 118.103 250.833 118.103C239.472 118.103 226.041 115.176 218.812 108.461L217.09 82.1213H222.598C226.904 100.541 236.716 112.077 251.694 112.077C265.982 112.077 274.762 104.329 274.762 90.384C274.762 76.956 261.162 69.8973 249.456 65.5933C232.757 59.568 218.812 52.5093 218.812 32.3667C218.812 10.3307 235.856 -3.13306e-06 255.997 -3.13306e-06C267.016 -3.13306e-06 278.378 3.09866 284.577 6.88666V31.1613H278.896Z" fill="white"/>
<path d="M320.213 18.5936C320.213 9.64159 319.867 9.29627 305.751 8.43627V2.92693H388.215V29.9563H382.706C380.297 13.0843 376.509 8.95359 358.087 8.95359H343.282C338.117 8.95359 337.427 9.64159 337.427 14.8056V53.5416H358.603C372.205 53.5416 372.894 48.8949 374.442 38.9083H379.953V75.2336H374.442C373.066 64.9043 372.205 60.0843 358.603 60.0843H337.427V95.5496C337.427 106.396 339.15 109.15 357.915 109.15C378.23 109.15 385.461 105.19 389.247 85.5643H394.93L391.486 115.347H305.751V110.011C319.867 108.978 320.213 108.632 320.213 99.6803V18.5936Z" fill="white"/>
<path d="M422.473 18.5936C422.473 9.64159 422.128 9.29627 408.01 8.43627V2.92693H490.476V29.9563H484.966C482.557 13.0843 478.769 8.95359 460.348 8.95359H445.542C440.377 8.95359 439.688 9.64159 439.688 14.8056V53.5416H460.864C474.465 53.5416 475.155 48.8949 476.703 38.9083H482.213V75.2336H476.703C475.327 64.9043 474.465 60.0843 460.864 60.0843H439.688V95.5496C439.688 106.396 441.41 109.15 460.176 109.15C480.491 109.15 487.721 105.19 491.508 85.5643H497.19L493.747 115.347H408.01V110.011C422.128 108.978 422.473 108.632 422.473 99.6803V18.5936Z" fill="white"/>
<path d="M600.656 115.347C577.93 82.8101 555.722 50.4435 532.653 18.0768H532.308V81.2608C532.308 90.2115 532.653 96.4101 533.342 101.747C534.374 108.806 539.366 109.15 549.869 110.01V115.347H509.582V110.01C518.018 109.321 522.668 108.633 523.7 101.747C524.389 96.4101 524.734 90.2115 524.734 81.2608V18.7648C524.734 9.64215 524.389 9.29682 510.272 8.43548V2.92748H542.122C560.37 28.9235 583.44 62.3221 604.616 91.7621L604.788 92.1048V37.0141C604.788 28.0621 604.444 21.8648 603.754 16.5275C602.722 9.46882 597.557 9.12482 587.056 8.43548V2.92748H627.341V8.43548C618.905 9.12482 614.601 9.46882 613.568 16.5275C612.88 22.0368 612.534 28.0621 612.534 37.0141V115.347H600.656Z" fill="white"/>
<path d="M53.1224 143.047V165.461H50.1104C48.7931 151.843 46.8171 148.012 36.5584 148.012H28.4637C25.5464 148.012 25.1704 148.437 25.1704 152.835V186.741H36.9344C44.3691 186.741 44.7451 183.336 45.5931 174.54H48.6051V205.184H45.5931C44.7451 196.529 44.3691 192.131 36.9344 192.131H25.1704V222.775C25.1704 230.152 25.4517 230.436 34.4864 231.287V235.685H7.94641V231.287C15.6637 230.436 15.8517 230.152 15.8517 222.775V155.956C15.8517 148.579 15.6637 148.296 7.94641 147.585V143.047H53.1224Z" fill="white"/>
<path d="M72.6008 189.436C72.6008 209.015 76.0834 232.989 91.7074 232.989C107.33 232.989 110.906 209.015 110.906 189.436C110.906 169.859 107.425 145.741 91.7074 145.741C76.0834 145.741 72.6008 169.859 72.6008 189.436ZM121.542 189.436C121.542 218.377 111.847 237.955 91.8008 237.955C71.6594 237.955 62.0594 218.377 62.0594 189.436C62.0594 160.353 71.5661 140.633 91.8954 140.633C111.847 140.633 121.542 160.353 121.542 189.436Z" fill="white"/>
<path d="M193.537 143.047V147.444C185.913 148.296 185.63 148.579 185.63 156.097V202.063C185.63 210.148 184.69 217.1 183.184 221.783C179.042 234.833 169.632 237.955 160.69 237.955C151.844 237.955 142.714 234.691 138.573 221.924C137.066 217.241 136.126 210.291 136.126 202.347V155.956C136.126 148.579 135.938 148.296 128.22 147.585V143.047H153.444V147.585C145.82 148.296 145.537 148.579 145.537 155.956V199.651C145.537 215.683 147.985 232.989 160.785 232.989C174.149 232.989 176.596 216.675 176.596 199.651V155.956C176.596 148.579 176.408 148.296 168.69 147.585V143.047H193.537Z" fill="white"/>
<path d="M248.215 235.685C235.792 208.873 223.651 182.202 211.039 155.53H210.851V207.596C210.851 214.973 211.039 220.08 211.415 224.478C211.98 230.294 214.709 230.578 220.451 231.286V235.685H198.427V231.286C203.039 230.72 205.58 230.153 206.144 224.478C206.521 220.08 206.709 214.973 206.709 207.596V156.098C206.709 148.58 206.521 148.296 198.804 147.586V143.046H216.215C226.191 164.469 238.803 191.99 250.38 216.249L250.473 216.533V171.136C250.473 163.76 250.285 158.652 249.909 154.254C249.344 148.437 246.52 148.154 240.779 147.586V143.046H262.803V147.586C258.191 148.154 255.837 148.437 255.273 154.254C254.897 158.793 254.709 163.76 254.709 171.136V235.685H248.215Z" fill="white"/>
<path d="M286.799 218.945C286.799 229.159 288.023 230.72 295.645 230.72C310.516 230.72 320.963 221.924 320.963 188.019C320.963 165.603 315.316 148.012 296.681 148.012C287.364 148.012 286.799 148.721 286.799 155.389V218.945ZM299.221 143.047C309.951 143.047 318.14 145.884 323.881 154.112C329.245 161.915 331.504 173.973 331.504 187.592C331.504 220.931 317.575 235.685 297.34 235.685H269.481V231.287C277.199 230.436 277.387 230.152 277.387 222.775V155.956C277.387 148.437 277.199 148.153 269.481 147.444V143.047H299.221Z" fill="white"/>
<path d="M364.724 156.239H364.442C361.807 167.73 358.607 181.775 355.878 194.969H373.383C371.407 185.322 366.795 165.035 364.724 156.239ZM373.948 235.685V231.286L378.088 230.719C380.818 230.294 381.29 228.733 380.348 225.045C378.842 218.519 375.642 204.615 374.512 200.077H354.654C352.678 209.582 350.795 217.242 349.383 225.327C348.631 228.733 348.914 230.153 351.548 230.578L356.16 231.286V235.685H336.584V231.286C342.138 230.862 342.983 229.301 344.866 222.065C351.266 196.955 357.666 168.439 363.69 142.479H370.842C375.83 164.609 384.96 203.623 389.666 223.342C391.264 230.153 392.206 230.578 397.288 231.286V235.685H373.948Z" fill="white"/>
<path d="M424.864 222.775C424.864 228.733 425.147 230.295 430.228 230.861L434.652 231.287V235.685H405.852V231.287L410.369 230.861C415.357 230.436 415.547 228.591 415.547 222.775V148.012H410.464C400.299 148.012 398.7 151.275 397.476 166.739H394.371V143.047H446.04V166.739H443.028C441.804 151.275 440.299 148.012 430.04 148.012H424.864V222.775Z" fill="white"/>
<path d="M469.848 222.775C469.848 230.152 470.131 230.436 477.754 231.287V235.685H452.624V231.287C460.342 230.436 460.531 230.152 460.531 222.775V155.956C460.531 148.58 460.342 148.296 452.624 147.585V143.047H477.754V147.585C470.131 148.296 469.848 148.58 469.848 155.956V222.775Z" fill="white"/>
<path d="M497.422 189.436C497.422 209.015 500.904 232.989 516.528 232.989C532.152 232.989 535.728 209.015 535.728 189.436C535.728 169.859 532.245 145.741 516.528 145.741C500.904 145.741 497.422 169.859 497.422 189.436ZM546.362 189.436C546.362 218.377 536.669 237.955 516.621 237.955C496.481 237.955 486.881 218.377 486.881 189.436C486.881 160.353 496.388 140.633 516.716 140.633C536.669 140.633 546.362 160.353 546.362 189.436Z" fill="white"/>
<path d="M604.805 235.685C592.383 208.873 580.241 182.202 567.629 155.53H567.441V207.596C567.441 214.973 567.629 220.08 568.005 224.478C568.571 230.294 571.3 230.578 577.041 231.286V235.685H555.017V231.286C559.629 230.72 562.171 230.153 562.735 224.478C563.111 220.08 563.3 214.973 563.3 207.596V156.098C563.3 148.58 563.111 148.296 555.393 147.586V143.046H572.805C582.781 164.469 595.393 191.99 606.969 216.249L607.064 216.533V171.136C607.064 163.76 606.876 158.652 606.5 154.254C605.935 148.437 603.111 148.154 597.371 147.586V143.046H619.393V147.586C614.781 148.154 612.429 148.437 611.864 154.254C611.488 158.793 611.299 163.76 611.299 171.136V235.685H604.805Z" fill="white"/>
</svg>
